<?xml version="1.0" encoding="UTF-8"?>
<svg version="1.1" xmlns="http://www.w3.org/2000/svg" width="720" height="274">
<path d="M0 0 C237.6 0 475.2 0 720 0 C720 90.42 720 180.84 720 274 C482.4 274 244.8 274 0 274 C0 183.58 0 93.16 0 0 Z " fill="#010101" transform="translate(0,0)"/>
<path d="M0 0 C1.12498901 0.0012085 1.12498901 0.0012085 2.27270508 0.00244141 C7.95931753 0.0650328 13.25562495 0.66010616 18.75 2.1875 C19.925625 2.47625 21.10125 2.765 22.3125 3.0625 C24.75 4.1875 24.75 4.1875 25.75 6 C25.75 8.76682125 24.92271259 10.70410864 23.75 13.1875 C23.09 13.1875 22.43 13.1875 21.75 13.1875 C21.61722656 13.75339844 21.48445312 14.31929687 21.34765625 14.90234375 C21.17105469 15.63582031 20.99445313 16.36929688 20.8125 17.125 C20.63847656 17.85589844 20.46445312 18.58679688 20.28515625 19.33984375 C19.75 21.1875 19.75 21.1875 18.75 22.1875 C15.96773739 22.41935522 14.1084778 22.34492676 11.53515625 21.21484375 C8.11906813 19.95477198 5.0672417 19.76603692 1.4375 19.5625 C0.18324219 19.48773438 -1.07101562 19.41296875 -2.36328125 19.3359375 C-3.31589844 19.28695312 -4.26851562 19.23796875 -5.25 19.1875 C-5.44787079 22.74917429 -5.35516046 25.22835936 -3.25 28.1875 C-1.16430007 28.69210482 0.92758446 29.17983731 3.0390625 29.5625 C10.03571199 31.1755604 16.68739041 34.39283743 22.75 38.1875 C22.75257813 37.52105469 22.75515625 36.85460937 22.7578125 36.16796875 C23.21846205 25.18915444 27.83517397 17.25923796 35.80078125 9.83984375 C44.06106551 2.83763886 53.25615167 -0.19937988 64 -0.0625 C64.73855225 -0.05863281 65.47710449 -0.05476563 66.23803711 -0.05078125 C72.21523647 0.0429277 77.93196473 0.7801135 83.75 2.1875 C83.75 2.8475 83.75 3.5075 83.75 4.1875 C84.74 4.5175 85.73 4.8475 86.75 5.1875 C86.75 5.8475 86.75 6.5075 86.75 7.1875 C87.3378125 7.46464844 87.925625 7.74179688 88.53125 8.02734375 C93.91955833 10.84482187 97.61663307 14.24385192 99.96875 19.90234375 C100.30841797 20.70663818 100.64808594 21.51093262 100.99804688 22.33959961 C101.24619141 22.94940674 101.49433594 23.55921387 101.75 24.1875 C101.77505615 23.55658447 101.8001123 22.92566895 101.82592773 22.27563477 C101.94154137 19.43353175 102.06442316 16.59178917 102.1875 13.75 C102.24647461 12.26016602 102.24647461 12.26016602 102.30664062 10.74023438 C102.34853516 9.79599609 102.39042969 8.85175781 102.43359375 7.87890625 C102.47025146 7.00435791 102.50690918 6.12980957 102.54467773 5.22875977 C102.75 3.1875 102.75 3.1875 103.75 2.1875 C105.60369611 2.10012355 107.46067541 2.08051847 109.31640625 2.08984375 C110.44111328 2.09306641 111.56582031 2.09628906 112.72460938 2.09960938 C113.90861328 2.10798828 115.09261719 2.11636719 116.3125 2.125 C117.50037109 2.12951172 118.68824219 2.13402344 119.91210938 2.13867188 C122.85812226 2.15050325 125.80403681 2.16698713 128.75 2.1875 C128.75 4.4975 128.75 6.8075 128.75 9.1875 C129.31847656 8.70539063 129.88695312 8.22328125 130.47265625 7.7265625 C139.22127147 0.56993235 146.56787097 -0.63883135 157.75 0.1875 C166.75111102 1.5959242 173.07640152 6.23131702 179.1875 12.8125 C182.06352951 17.18406485 183.00018892 20.76989821 182.97705078 25.98754883 C182.97689972 27.12835403 182.97674866 28.26915924 182.97659302 29.4445343 C182.96627045 30.66553329 182.95594788 31.88653229 182.9453125 33.14453125 C182.94106766 35.03168098 182.94106766 35.03168098 182.93673706 36.95695496 C182.92745121 40.28937382 182.90950476 43.62151547 182.8873291 46.95385742 C182.86681017 50.35918753 182.85761261 53.7645472 182.84765625 57.16992188 C182.82731891 63.84260336 182.78816606 70.51480135 182.75 77.1875 C174.17 77.1875 165.59 77.1875 156.75 77.1875 C156.73582031 73.79210937 156.72164062 70.39671875 156.70703125 66.8984375 C156.67639822 63.6019503 156.6373125 60.30566386 156.59741211 57.00927734 C156.57424691 54.72224044 156.55983989 52.43509708 156.55444336 50.14794922 C156.54514342 46.8557716 156.50412726 43.56526501 156.45703125 40.2734375 C156.46293022 38.74497696 156.46293022 38.74497696 156.46894836 37.18563843 C156.37481331 32.58245603 156.30453155 29.23757482 153.3190918 25.58056641 C149.29606789 21.83318635 146.59583414 20.59305032 140.91796875 20.7421875 C136.80131757 21.5877699 133.40371096 23.97128172 130.75 27.1875 C129.52613538 32.4674835 129.53266552 37.78754456 129.43359375 43.1796875 C129.4024221 44.59859787 129.4024221 44.59859787 129.37062073 46.0461731 C129.30552415 49.05154541 129.24642664 52.05700101 129.1875 55.0625 C129.1442768 57.10677926 129.10066132 59.15105026 129.05664062 61.1953125 C128.94914974 66.19262441 128.84978007 71.19000444 128.75 76.1875 C120.5 76.1875 112.25 76.1875 103.75 76.1875 C103.75 65.2975 103.75 54.4075 103.75 43.1875 C85.93 43.1875 68.11 43.1875 49.75 43.1875 C50.74 48.1375 50.74 48.1375 51.75 53.1875 C54.12470438 54.88948927 54.12470438 54.88948927 56.75 55.1875 C57.41 55.5175 58.07 55.8475 58.75 56.1875 C58.75 56.8475 58.75 57.5075 58.75 58.1875 C61.35452271 58.04663398 63.95850197 57.90001536 66.5625 57.75 C67.30048828 57.71068359 68.03847656 57.67136719 68.79882812 57.63085938 C71.98071342 57.44368965 74.71162378 57.20029207 77.75 56.1875 C78.08 55.1975 78.41 54.2075 78.75 53.1875 C81.33072903 50.86484388 82.20176068 50.1875 85.75 50.1875 C85.75 50.8475 85.75 51.5075 85.75 52.1875 C86.389375 52.27 87.02875 52.3525 87.6875 52.4375 C91.91219917 53.4721202 96.03868286 54.89071238 99.75 57.1875 C101.01953125 59.32421875 101.01953125 59.32421875 101.75 61.1875 C94.10989076 70.51412271 86.11547359 77.12850652 73.77905273 78.5234375 C47.7767395 79.89966579 47.7767395 79.89966579 38.75 72.1875 C35.87859693 69.42999392 33.2612785 66.53840189 30.7109375 63.48046875 C28.95754733 61.12915193 28.95754733 61.12915193 26.75 60.1875 C26.70875 60.868125 26.6675 61.54875 26.625 62.25 C24.67833889 68.78521943 19.38513781 72.78020737 13.75 76.1875 C13.42 76.5175 13.09 76.8475 12.75 77.1875 C-1.83264602 80.80019892 -17.63534063 81.15585726 -30.8125 73.5625 C-32.632263 72.44928668 -34.44737112 71.32824992 -36.25 70.1875 C-36.25 72.4975 -36.25 74.8075 -36.25 77.1875 C-40.56248609 77.21636537 -44.87494762 77.23425255 -49.1875 77.25 C-51.03504883 77.26256836 -51.03504883 77.26256836 -52.91992188 77.27539062 C-54.08974609 77.27861328 -55.25957031 77.28183594 -56.46484375 77.28515625 C-58.09087524 77.29301147 -58.09087524 77.29301147 -59.74975586 77.30102539 C-62.25 77.1875 -62.25 77.1875 -63.25 76.1875 C-63.37299166 74.50040653 -63.42785258 72.80829097 -63.45532227 71.11694336 C-63.47526749 70.03589828 -63.49521271 68.95485321 -63.51576233 67.84104919 C-63.54083107 66.077015 -63.54083107 66.077015 -63.56640625 64.27734375 C-63.58718735 63.08017227 -63.60796844 61.88300079 -63.62937927 60.64955139 C-63.69500279 56.80809513 -63.75381903 52.96656799 -63.8125 49.125 C-63.85567305 46.52798733 -63.89928693 43.93098194 -63.94335938 41.33398438 C-64.05069716 34.95189883 -64.15243931 28.56974207 -64.25 22.1875 C-71.35558276 31.04627841 -76.0355397 39.68123903 -80.25 50.1875 C-80.91 50.1875 -81.57 50.1875 -82.25 50.1875 C-82.91 52.4975 -83.57 54.8075 -84.25 57.1875 C-84.91 57.1875 -85.57 57.1875 -86.25 57.1875 C-86.58 59.1675 -86.91 61.1475 -87.25 63.1875 C-87.91 63.1875 -88.57 63.1875 -89.25 63.1875 C-89.62125 64.425 -89.62125 64.425 -90 65.6875 C-91.41728759 69.65590526 -93.3654871 73.41847419 -95.25 77.1875 C-101.19 77.1875 -107.13 77.1875 -113.25 77.1875 C-116.39743213 70.42977808 -119.28955908 63.6338885 -122.00488281 56.69628906 C-123.86841813 51.99515261 -125.99098324 47.50395598 -128.3671875 43.04296875 C-129.25 41.1875 -129.25 41.1875 -129.25 39.1875 C-129.91 39.1875 -130.57 39.1875 -131.25 39.1875 C-131.58 41.1675 -131.91 43.1475 -132.25 45.1875 C-132.91 45.1875 -133.57 45.1875 -134.25 45.1875 C-134.311875 45.97125 -134.37375 46.755 -134.4375 47.5625 C-135.1664763 50.8148558 -136.03477459 52.90700995 -137.5625 55.8125 C-140.06640438 60.57496942 -141.72270618 65.37471806 -143.2578125 70.5234375 C-145.05579574 75.35109329 -145.05579574 75.35109329 -147.25 77.1875 C-150.49098387 77.68147604 -153.66909553 77.56182848 -156.9375 77.4375 C-157.83017578 77.41945313 -158.72285156 77.40140625 -159.64257812 77.3828125 C-161.84613504 77.33567759 -164.04752601 77.26990657 -166.25 77.1875 C-166.50523437 76.17171875 -166.76046875 75.1559375 -167.0234375 74.109375 C-168.13036707 70.23219312 -169.87490946 66.94383156 -171.875 63.4375 C-175.25 57.51403061 -175.25 57.51403061 -175.25 54.1875 C-176.735 53.6925 -176.735 53.6925 -178.25 53.1875 C-179.99672985 49.6940403 -181.25 47.11904432 -181.25 43.1875 C-181.91 43.1875 -182.57 43.1875 -183.25 43.1875 C-183.75789063 42.16011719 -184.26578125 41.13273437 -184.7890625 40.07421875 C-191.47543162 26.09836787 -191.47543162 26.09836787 -199.5625 12.9375 C-201.25 10.1875 -201.25 10.1875 -202.25 3.1875 C-193.01 3.1875 -183.77 3.1875 -174.25 3.1875 C-173.156875 5.353125 -172.06375 7.51875 -170.9375 9.75 C-170.59936279 10.41717041 -170.26122559 11.08434082 -169.9128418 11.77172852 C-164.25 23.0463064 -164.25 23.0463064 -164.25 27.1875 C-163.59 27.1875 -162.93 27.1875 -162.25 27.1875 C-161.91226563 28.11433594 -161.57453125 29.04117188 -161.2265625 29.99609375 C-160.78054688 31.19363281 -160.33453125 32.39117187 -159.875 33.625 C-159.43414062 34.81996094 -158.99328125 36.01492187 -158.5390625 37.24609375 C-157.57914764 40.28946898 -157.57914764 40.28946898 -155.25 41.1875 C-155.1675 40.548125 -155.085 39.90875 -155 39.25 C-154.15546158 35.80146814 -152.82447792 32.84330671 -151.34765625 29.625 C-150.28788603 27.27163125 -149.31913204 24.9018087 -148.375 22.5 C-146.66529136 18.18145307 -144.8821142 13.89810595 -143.0625 9.625 C-142.29873047 7.82869141 -142.29873047 7.82869141 -141.51953125 5.99609375 C-140.25 3.1875 -140.25 3.1875 -139.25 2.1875 C-136.27539596 1.9805196 -133.35268416 1.86296922 -130.375 1.8125 C-129.13169922 1.75642578 -129.13169922 1.75642578 -127.86328125 1.69921875 C-125.5573354 1.66569127 -123.50529023 1.70201004 -121.25 2.1875 C-118.34371182 5.37893344 -118.25 6.82671175 -118.25 11.1875 C-117.59 11.1875 -116.93 11.1875 -116.25 11.1875 C-113.06325357 17.82220158 -110.38777399 24.41657831 -108.2421875 31.4609375 C-106.34878496 36.72892202 -106.34878496 36.72892202 -102.25 40.1875 C-101.693125 38.3621875 -101.693125 38.3621875 -101.125 36.5 C-99.35170678 31.13749309 -96.9761839 26.10379747 -94.5546875 21.0078125 C-93.19249496 18.20049169 -93.19249496 18.20049169 -92.25 15.1875 C-91.59 15.1875 -90.93 15.1875 -90.25 15.1875 C-90.146875 14.341875 -90.04375 13.49625 -89.9375 12.625 C-89.16736721 8.77433605 -87.838666 5.76945202 -86.25 2.1875 C-79.28996553 2.16223162 -72.3299428 2.14466778 -65.36987305 2.13256836 C-63.00007688 2.12752659 -60.63028385 2.12069335 -58.26049805 2.11206055 C-54.86245961 2.0999881 -51.46446215 2.09427029 -48.06640625 2.08984375 C-46.99975235 2.08468246 -45.93309845 2.07952118 -44.8341217 2.07420349 C-43.36270973 2.07409019 -43.36270973 2.07409019 -41.86157227 2.07397461 C-40.99331314 2.071754 -40.12505402 2.06953339 -39.23048401 2.06724548 C-37.25 2.1875 -37.25 2.1875 -36.25 3.1875 C-36.15594858 5.1818173 -36.13256751 7.17949543 -36.13647461 9.17602539 C-36.13655014 10.45727798 -36.13662567 11.73853058 -36.13670349 13.05860901 C-36.14181091 14.46745848 -36.14702691 15.87630756 -36.15234375 17.28515625 C-36.15420798 18.71862234 -36.15563186 20.15208907 -36.15663147 21.58555603 C-36.16045628 25.36509957 -36.17028623 29.1446049 -36.18133545 32.9241333 C-36.19155037 36.77819298 -36.19612926 40.63225882 -36.20117188 44.48632812 C-36.21190854 52.05340287 -36.22898451 59.62044609 -36.25 67.1875 C-35.59 67.1875 -34.93 67.1875 -34.25 67.1875 C-34.064375 66.32125 -34.064375 66.32125 -33.875 65.4375 C-33.24351176 63.16414233 -32.36141809 61.2621471 -31.25 59.1875 C-30.59 59.1875 -29.93 59.1875 -29.25 59.1875 C-28.92 57.5375 -28.59 55.8875 -28.25 54.1875 C-27.59 54.1875 -26.93 54.1875 -26.25 54.1875 C-26.25 53.5275 -26.25 52.8675 -26.25 52.1875 C-25.6828125 52.47496094 -25.115625 52.76242188 -24.53125 53.05859375 C-22.2887716 54.16831337 -20.03130665 55.22263074 -17.75 56.25 C-16.9971875 56.59160156 -16.244375 56.93320313 -15.46875 57.28515625 C-11.89384407 58.73903525 -8.85568164 59.31426136 -5 59.25 C-3.7625 59.229375 -2.525 59.20875 -1.25 59.1875 C-0.92 56.8775 -0.59 54.5675 -0.25 52.1875 C-1.15878906 51.85878906 -1.15878906 51.85878906 -2.0859375 51.5234375 C-8.61481387 49.0525089 -14.35585879 45.90229488 -20.25 42.1875 C-21.10335937 41.72472656 -21.95671875 41.26195312 -22.8359375 40.78515625 C-27.12355928 37.94755543 -29.33779496 33.88753259 -31.25 29.1875 C-31.70618221 25.45338999 -31.63364521 21.92448856 -31.25 18.1875 C-30.59 18.1875 -29.93 18.1875 -29.25 18.1875 C-29.1675 17.300625 -29.085 16.41375 -29 15.5 C-28.13971949 11.70042776 -26.98882411 9.92632411 -24.25 7.1875 C-22 6.375 -22 6.375 -20.25 6.1875 C-20.25 5.5275 -20.25 4.8675 -20.25 4.1875 C-13.5463178 0.51643594 -7.54914384 -0.00843574 0 0 Z " fill="#F7F7F7" transform="translate(495.25,106.8125)"/>
<path d="M0 0 C3.07107131 1.90668409 6.0600504 3.89711938 9 6 C9 4.02 9 2.04 9 0 C17.25 0 25.5 0 34 0 C34.04530644 10.51876172 34.0819481 21.03745791 34.10362434 31.55629539 C34.11403138 36.44137594 34.12813396 41.32638587 34.15087891 46.21142578 C34.17271758 50.93172519 34.18459176 55.65195695 34.18975449 60.37230301 C34.19343054 62.16709074 34.20060861 63.96187506 34.21146011 65.75663376 C34.26370025 74.76038616 34.27202658 83.21849933 32 92 C31.34 92 30.68 92 30 92 C29.896875 92.57878906 29.79375 93.15757812 29.6875 93.75390625 C27.59397441 100.59354952 21.10949614 104.94975697 15.11328125 108.1875 C13 109 13 109 9 109 C9 109.66 9 110.32 9 111 C7.68 111 6.36 111 5 111 C5 111.66 5 112.32 5 113 C-9.4517022 115.40861703 -26.41637951 115.53403204 -39 107 C-43.45814472 103.24673648 -47.12153482 99.06609871 -50 94 C-50 93.01 -50 92.02 -50 91 C-49.01 91 -48.02 91 -47 91 C-47 90.34 -47 89.68 -47 89 C-44.77890472 87.7947778 -42.5502135 86.61112596 -40.3125 85.4375 C-39.68666016 85.09525391 -39.06082031 84.75300781 -38.41601562 84.40039062 C-35.58638975 82.93372591 -33.48594323 81.98262006 -30.26953125 82.09765625 C-27.79274284 83.08240345 -26.30178797 84.16999134 -24.375 86 C-19.29744074 90.7788793 -14.19236556 90.34583267 -7.45703125 90.26953125 C-1.99131386 89.84339057 0.83142615 88.52146513 4.48828125 84.26953125 C7.93239515 79.40896488 8.85001755 74.89021985 9 69 C8.55269531 69.34933594 8.10539062 69.69867188 7.64453125 70.05859375 C7.03996094 70.51363281 6.43539062 70.96867187 5.8125 71.4375 C5.22082031 71.88996094 4.62914062 72.34242188 4.01953125 72.80859375 C-1.37986087 75.99392179 -8.25233728 75.21933504 -14.3125 75.25 C-15.31990234 75.270625 -16.32730469 75.29125 -17.36523438 75.3125 C-26.07141844 75.35787425 -33.12775843 73.70249832 -40 68 C-50.08074381 55.58105303 -54.3602369 43.58042969 -52.7578125 27.58203125 C-51.28511979 19.09150697 -46.43022874 11.62645015 -40 6 C-39.113125 5.154375 -38.22625 4.30875 -37.3125 3.4375 C-27.52733352 -4.35119674 -11.06815814 -6.49807994 0 0 Z " fill="#F8F8F8" transform="translate(120,110)"/>
<path d="M0 0 C1.24330078 -0.05607422 1.24330078 -0.05607422 2.51171875 -0.11328125 C4.8176646 -0.14680873 6.86970977 -0.11048996 9.125 0.375 C12.03128818 3.56643344 12.125 5.01421175 12.125 9.375 C12.785 9.375 13.445 9.375 14.125 9.375 C17.31174643 16.00970158 19.98722601 22.60407831 22.1328125 29.6484375 C24.02621504 34.91642202 24.02621504 34.91642202 28.125 38.375 C28.681875 36.5496875 28.681875 36.5496875 29.25 34.6875 C31.02329322 29.32499309 33.3988161 24.29129747 35.8203125 19.1953125 C37.18250504 16.38799169 37.18250504 16.38799169 38.125 13.375 C38.785 13.375 39.445 13.375 40.125 13.375 C40.228125 12.529375 40.33125 11.68375 40.4375 10.8125 C41.125 7.375 41.125 7.375 44.125 0.375 C60.295 0.375 76.465 0.375 93.125 0.375 C93.125 24.795 93.125 49.215 93.125 74.375 C85.205 74.375 77.285 74.375 69.125 74.375 C69.125 54.245 69.125 34.115 69.125 13.375 C68.465 13.375 67.805 13.375 67.125 13.375 C66.795 14.6125 66.465 15.85 66.125 17.125 C64.75590356 21.28419819 62.82439845 24.4843655 60.3125 28.0625 C55.8241651 34.49218492 52.96639629 41.09930343 50.125 48.375 C49.465 48.375 48.805 48.375 48.125 48.375 C47.465 50.685 46.805 52.995 46.125 55.375 C45.465 55.375 44.805 55.375 44.125 55.375 C43.795 57.355 43.465 59.335 43.125 61.375 C42.465 61.375 41.805 61.375 41.125 61.375 C40.75375 62.6125 40.75375 62.6125 40.375 63.875 C38.95771241 67.84340526 37.0095129 71.60597419 35.125 75.375 C29.185 75.375 23.245 75.375 17.125 75.375 C13.97756787 68.61727808 11.08544092 61.8213885 8.37011719 54.88378906 C6.50658187 50.18265261 4.38401676 45.69145598 2.0078125 41.23046875 C1.125 39.375 1.125 39.375 1.125 37.375 C0.465 37.375 -0.195 37.375 -0.875 37.375 C-1.205 39.355 -1.535 41.335 -1.875 43.375 C-2.535 43.375 -3.195 43.375 -3.875 43.375 C-3.936875 44.15875 -3.99875 44.9425 -4.0625 45.75 C-4.7914763 49.0023558 -5.65977459 51.09450995 -7.1875 54 C-9.69140438 58.76246942 -11.34770618 63.56221806 -12.8828125 68.7109375 C-14.68079574 73.53859329 -14.68079574 73.53859329 -16.875 75.375 C-20.11598387 75.86897604 -23.29409553 75.74932848 -26.5625 75.625 C-27.45517578 75.60695313 -28.34785156 75.58890625 -29.26757812 75.5703125 C-31.47113504 75.52317759 -33.67252601 75.45740657 -35.875 75.375 C-36.13023437 74.35921875 -36.38546875 73.3434375 -36.6484375 72.296875 C-37.75536707 68.41969312 -39.49990946 65.13133156 -41.5 61.625 C-44.875 55.70153061 -44.875 55.70153061 -44.875 52.375 C-46.36 51.88 -46.36 51.88 -47.875 51.375 C-49.62172985 47.8815403 -50.875 45.30654432 -50.875 41.375 C-51.535 41.375 -52.195 41.375 -52.875 41.375 C-53.38289063 40.34761719 -53.89078125 39.32023437 -54.4140625 38.26171875 C-61.10043162 24.28586787 -61.10043162 24.28586787 -69.1875 11.125 C-70.875 8.375 -70.875 8.375 -71.875 1.375 C-62.635 1.375 -53.395 1.375 -43.875 1.375 C-42.781875 3.540625 -41.68875 5.70625 -40.5625 7.9375 C-40.22436279 8.60467041 -39.88622559 9.27184082 -39.5378418 9.95922852 C-33.875 21.2338064 -33.875 21.2338064 -33.875 25.375 C-33.215 25.375 -32.555 25.375 -31.875 25.375 C-31.53726563 26.30183594 -31.19953125 27.22867188 -30.8515625 28.18359375 C-30.40554688 29.38113281 -29.95953125 30.57867187 -29.5 31.8125 C-29.05914062 33.00746094 -28.61828125 34.20242187 -28.1640625 35.43359375 C-27.20414764 38.47696898 -27.20414764 38.47696898 -24.875 39.375 C-24.7925 38.735625 -24.71 38.09625 -24.625 37.4375 C-23.78046158 33.98896814 -22.44947792 31.03080671 -20.97265625 27.8125 C-19.91288603 25.45913125 -18.94413204 23.0893087 -18 20.6875 C-16.29029136 16.36895307 -14.5071142 12.08560595 -12.6875 7.8125 C-11.92373047 6.01619141 -11.92373047 6.01619141 -11.14453125 4.18359375 C-8.7678348 -1.07439009 -5.2571831 0.0891048 0 0 Z " fill="#F9F9F9" transform="translate(364.875,108.625)"/>
<path d="M0 0 C8.38164922 6.50176504 14.25474231 13.64493343 16.1875 24.25 C16.68379935 31.43336545 17.12567612 39.2838299 15.1875 46.25 C14.5275 46.25 13.8675 46.25 13.1875 46.25 C13.105 46.97316406 13.0225 47.69632813 12.9375 48.44140625 C10.90620971 56.04816518 2.85525824 62.07859509 -3.6171875 66.0703125 C-14.90310444 72.13498673 -30.26403159 73.42956187 -42.671875 69.99609375 C-51.54763968 66.90253343 -57.5550794 63.30435625 -63.8125 56.25 C-64.33585938 55.75628906 -64.85921875 55.26257813 -65.3984375 54.75390625 C-66.99905512 53.05159193 -67.91512778 51.40957059 -68.9375 49.3125 C-69.43636719 48.30896484 -69.43636719 48.30896484 -69.9453125 47.28515625 C-73.53343541 38.86438132 -73.83573956 25.82564671 -70.53125 17.32421875 C-67.16467627 10.81295911 -62.7792706 4.62973265 -56.8125 0.25 C-54.57421875 -0.453125 -54.57421875 -0.453125 -52.8125 -0.75 C-52.8125 -1.41 -52.8125 -2.07 -52.8125 -2.75 C-35.43586393 -7.73382392 -15.72841232 -10.8646061 0 0 Z " fill="#F9F9F9" transform="translate(285.8125,114.75)"/>
<path d="M0 0 C-0.84488999 3.95287819 -2.31638601 7.67012699 -3.75 11.4375 C-4.150979 12.49723022 -4.150979 12.49723022 -4.56005859 13.57836914 C-5.10825908 15.02532562 -5.65757458 16.47186015 -6.20800781 17.91796875 C-6.93115441 19.81901506 -7.64942841 21.72191304 -8.3671875 23.625 C-9.55712476 26.7587478 -10.76809677 29.8825306 -12 33 C-12.33773437 33.8559375 -12.67546875 34.711875 -13.0234375 35.59375 C-15.05885177 40.47874426 -17.23929627 44.23929627 -21 48 C-23.3125 48.875 -23.3125 48.875 -25 49 C-25 49.66 -25 50.32 -25 51 C-31.56762268 54.28381134 -41.7970407 53.41368347 -49 53 C-49.99 52.67 -50.98 52.34 -52 52 C-52.66666667 49.66666667 -53.33333333 47.33333333 -54 45 C-54.99 44.67 -55.98 44.34 -57 44 C-56.79503906 44.53109375 -56.59007812 45.0621875 -56.37890625 45.609375 C-56.10949219 46.31578125 -55.84007812 47.0221875 -55.5625 47.75 C-55.29566406 48.44609375 -55.02882812 49.1421875 -54.75390625 49.859375 C-54.03853307 51.89059003 -53.48634348 53.9035291 -53 56 C-59.10555272 59.52243426 -66.10647749 59.44841043 -72.9609375 58.8203125 C-76.06701265 57.57074204 -77.45998206 55.3628997 -79.5 52.75 C-80.2528125 51.79609375 -81.005625 50.8421875 -81.78125 49.859375 C-82.5134375 48.91578125 -83.245625 47.9721875 -84 47 C-84.7528125 46.09765625 -85.505625 45.1953125 -86.28125 44.265625 C-88 42 -88 42 -88 40 C-88.61875 39.7525 -89.2375 39.505 -89.875 39.25 C-92.37480203 37.77952822 -92.83316022 36.58596924 -94 34 C-84.89703998 29.03264872 -75.23524983 27.27060005 -65 30 C-65 30.66 -65 31.32 -65 32 C-63.35 32 -61.7 32 -60 32 C-59.9175 30.824375 -59.835 29.64875 -59.75 28.4375 C-59.20155569 23.84530215 -57.49130683 20.85750735 -55 17 C-54.34 17 -53.68 17 -53 17 C-52.73445313 16.40058594 -52.46890625 15.80117187 -52.1953125 15.18359375 C-50.22832014 11.59029725 -47.19973799 9.4780406 -44 7 C-43.44699219 6.54109375 -42.89398438 6.0821875 -42.32421875 5.609375 C-32.31371862 -1.75977366 -11.71784735 -3.90594912 0 0 Z " fill="#F4F4F4" transform="translate(195,49)"/>
<path d="M0 0 C-0.60698743 4.12751449 -2.03810791 7.3321148 -4 11 C-4.66 11 -5.32 11 -6 11 C-6.103125 11.70125 -6.20625 12.4025 -6.3125 13.125 C-7.09359003 16.39137647 -8.42058743 19.0471852 -10 22 C-10.8559375 21.67644531 -11.711875 21.35289062 -12.59375 21.01953125 C-19.11362899 19.06805371 -26.13133469 19.10972456 -32.625 21.125 C-36.08120561 23.85358337 -37.70978712 26.81925325 -38.29769897 31.23699951 C-38.44202077 33.8981064 -38.49343723 36.5459849 -38.51171875 39.2109375 C-38.52966995 40.17907379 -38.54762115 41.14721008 -38.56611633 42.14468384 C-38.62007795 45.22141227 -38.65406989 48.2979868 -38.6875 51.375 C-38.72068553 53.46746926 -38.75517633 55.55991826 -38.79101562 57.65234375 C-38.87824162 62.7682496 -38.93843173 67.88346425 -39 73 C-47.58 73 -56.16 73 -65 73 C-65 48.25 -65 23.5 -65 -2 C-56.42 -2 -47.84 -2 -39 -2 C-39 1.3 -39 4.6 -39 8 C-38.34 8 -37.68 8 -37 8 C-36.7525 7.4225 -36.505 6.845 -36.25 6.25 C-33.28050224 0.90490404 -29.30362967 -1.15445959 -23.72265625 -3.2421875 C-15.58444468 -5.50734251 -7.34284427 -4.11199279 0 0 Z " fill="#F5F5F5" transform="translate(224,111)"/>
<path d="M0 0 C3.54297789 2.87523261 6.21835513 5.81109674 6.76171875 10.4296875 C6.89909515 14.27622678 6.94124387 17.74367149 5.76171875 21.4296875 C5.10171875 21.4296875 4.44171875 21.4296875 3.76171875 21.4296875 C3.51421875 22.0071875 3.26671875 22.5846875 3.01171875 23.1796875 C1.22976157 26.38721043 -0.93969215 28.78039295 -4.23828125 30.4296875 C-6.69522033 30.63322092 -9.09070778 30.75309397 -11.55078125 30.8046875 C-12.86691406 30.85367188 -14.18304688 30.90265625 -15.5390625 30.953125 C-20.09389715 30.3086183 -21.36749476 28.922305 -24.23828125 25.4296875 C-25.00140625 24.6046875 -25.76453125 23.7796875 -26.55078125 22.9296875 C-29.15569988 17.5268933 -29.11204914 12.31455159 -28.23828125 6.4296875 C-26.63107829 2.94847319 -24.58027675 0.93746958 -20.92578125 -0.4453125 C-20.36890625 -0.4865625 -19.81203125 -0.5278125 -19.23828125 -0.5703125 C-19.23828125 -1.2303125 -19.23828125 -1.8903125 -19.23828125 -2.5703125 C-11.6668374 -4.46317346 -6.41470702 -4.46130901 0 0 Z " fill="#0B0B0B" transform="translate(269.23828125,132.5703125)"/>
<path d="M0 0 C4.63690886 2.52005916 7.50548278 5.8574128 9.875 10.5625 C10.95678988 16.23282147 10.69985443 20.85169081 8.1875 26.0625 C1.39824532 33.40223479 1.39824532 33.40223479 -3.76953125 33.73046875 C-4.81496094 33.73691406 -5.86039063 33.74335938 -6.9375 33.75 C-8.49404297 33.77126953 -8.49404297 33.77126953 -10.08203125 33.79296875 C-14.70202517 33.44305907 -17.28336541 32.47237523 -20.4375 29.0625 C-22.125 26.5625 -22.125 26.5625 -22.125 24.5625 C-22.785 24.5625 -23.445 24.5625 -24.125 24.5625 C-25.61921278 20.07986167 -26.05439981 15.14357605 -24.44140625 10.6640625 C-19.05992373 0.43701274 -10.81048775 -1.51346828 0 0 Z " fill="#080808" transform="translate(119.125,129.4375)"/>
<path d="M0 0 C17.82 0 35.64 0 54 0 C54 10.89 54 21.78 54 33 C61.92 33 69.84 33 78 33 C78 33.33 78 33.66 78 34 C73.85418113 34.02886751 69.70838784 34.04675327 65.5625 34.0625 C64.37849609 34.07087891 63.19449219 34.07925781 61.97460938 34.08789062 C60.84990234 34.09111328 59.72519531 34.09433594 58.56640625 34.09765625 C57.00321655 34.10551147 57.00321655 34.10551147 55.40844727 34.11352539 C53 34 53 34 52 33 C51.76636119 31.15108054 51.58696365 29.29511969 51.4375 27.4375 C51.35371094 26.42558594 51.26992188 25.41367188 51.18359375 24.37109375 C51.12300781 23.58863281 51.06242188 22.80617187 51 22 C49.02 22.99 49.02 22.99 47 24 C48.33333333 21.33333333 49.66666667 18.66666667 51 16 C46.32124679 12.88083119 41.22301716 10.99793084 36 9 C36 8.34 36 7.68 36 7 C35.21625 7.495 34.4325 7.99 33.625 8.5 C31 10 31 10 29 10 C28.896875 10.639375 28.79375 11.27875 28.6875 11.9375 C28.460625 12.618125 28.23375 13.29875 28 14 C24.23699626 15.25433458 20.72789091 15.10695422 16.8125 15.0625 C16.06291016 15.05798828 15.31332031 15.05347656 14.54101562 15.04882812 C12.69397617 15.03706354 10.84697787 15.01912865 9 15 C9 14.34 9 13.68 9 13 C8.236875 12.731875 7.47375 12.46375 6.6875 12.1875 C2.58241758 10.37362637 2.58241758 10.37362637 1 8 C0.67 5.36 0.34 2.72 0 0 Z " fill="#090909" transform="translate(545,150)"/>
<path d="M0 0 C2.87551448 1.75275395 5.33405624 3.64802692 6.390625 6.9296875 C7.45842665 12.57378192 7.96374397 18.08213549 4.67578125 23.03515625 C1.01133494 27.37517087 -2.94678548 29.2101924 -8.57421875 29.72265625 C-13.52151956 29.56360597 -16.1755689 27.36259149 -19.6015625 23.95703125 C-23.01384007 19.98577423 -23.67012134 16.39343578 -23.51171875 11.15625 C-22.78533894 6.37122299 -20.51119755 3.08964022 -16.63671875 0.16015625 C-11.36298334 -1.46990742 -5.21984879 -2.14171416 0 0 Z " fill="#F4F4F4" transform="translate(454.19921875,64.90234375)"/>
<path d="M0 0 C0 1.32 0 2.64 0 4 C0.95261719 4.09796875 1.90523437 4.1959375 2.88671875 4.296875 C4.14097656 4.44640625 5.39523438 4.5959375 6.6875 4.75 C8.54955078 4.95882812 8.54955078 4.95882812 10.44921875 5.171875 C14.32064503 6.0747819 16.0507303 7.42458139 19 10 C21.7104607 10.33592508 21.7104607 10.33592508 24 10 C24 11.98 24 13.96 24 16 C24.66 16 25.32 16 26 16 C28.04169485 18.90548882 29 20.40142046 29 24 C22.89444728 27.52243426 15.89352251 27.44841043 9.0390625 26.8203125 C5.93298735 25.57074204 4.54001794 23.3628997 2.5 20.75 C1.37078125 19.31914063 1.37078125 19.31914063 0.21875 17.859375 C-0.5134375 16.91578125 -1.245625 15.9721875 -2 15 C-2.7528125 14.09765625 -3.505625 13.1953125 -4.28125 12.265625 C-6 10 -6 10 -6 8 C-6.61875 7.7525 -7.2375 7.505 -7.875 7.25 C-10.37480203 5.77952822 -10.83316022 4.58596924 -12 2 C-10.56656 1.46809459 -9.12804633 0.94984742 -7.6875 0.4375 C-6.48673828 0.00244141 -6.48673828 0.00244141 -5.26171875 -0.44140625 C-3 -1 -3 -1 0 0 Z " fill="#F6F6F6" transform="translate(113,81)"/>
<path d="M0 0 C3.76817191 1.49714316 5.74034723 3.61052084 8 7 C8 8.65 8 10.3 8 12 C-0.91 12 -9.82 12 -19 12 C-19 6 -19 6 -17.890625 4.1015625 C-12.44899272 -0.79590655 -7.10665651 -1.17294331 0 0 Z " fill="#161616" transform="translate(565,124)"/>
<path d="M0 0 C0.33 0 0.66 0 1 0 C1.01030746 0.79513504 1.02061493 1.59027008 1.03123474 2.40950012 C1.12917088 9.89915744 1.23167981 17.38873153 1.33933926 24.87825489 C1.39452767 28.72878482 1.44794113 32.57932241 1.49731445 36.42993164 C1.54501824 40.14526156 1.59736321 43.86049964 1.65294075 47.57571983 C1.67333705 48.99388024 1.69205463 50.41206581 1.70907402 51.83027077 C1.73317806 53.81504721 1.7637786 55.79974155 1.79467773 57.78442383 C1.81799416 59.47986076 1.81799416 59.47986076 1.84178162 61.20954895 C1.88252967 64.08428342 1.88252967 64.08428342 3 67 C2.34 67 1.68 67 1 67 C1 69.31 1 71.62 1 74 C-3.31248609 74.02886537 -7.62494762 74.04675255 -11.9375 74.0625 C-13.16919922 74.07087891 -14.40089844 74.07925781 -15.66992188 74.08789062 C-16.83974609 74.09111328 -18.00957031 74.09433594 -19.21484375 74.09765625 C-20.84087524 74.10551147 -20.84087524 74.10551147 -22.49975586 74.11352539 C-25 74 -25 74 -26 73 C-26.12299166 71.31290653 -26.17785258 69.62079097 -26.20532227 67.92944336 C-26.22526749 66.84839828 -26.24521271 65.76735321 -26.26576233 64.65354919 C-26.29083107 62.889515 -26.29083107 62.889515 -26.31640625 61.08984375 C-26.33718735 59.89267227 -26.35796844 58.69550079 -26.37937927 57.46205139 C-26.44500279 53.62059513 -26.50381903 49.77906799 -26.5625 45.9375 C-26.60567305 43.34048733 -26.64928693 40.74348194 -26.69335938 38.14648438 C-26.80069716 31.76439883 -26.90243931 25.38224207 -27 19 C-27.66 19 -28.32 19 -29 19 C-27.125 14.25 -27.125 14.25 -26 12 C-25.34 12 -24.68 12 -24 12 C-24 32.13 -24 52.26 -24 73 C-16.08 73 -8.16 73 0 73 C0 48.91 0 24.82 0 0 Z " fill="#9D9D9D" transform="translate(458,110)"/>
<path d="M0 0 C-4.75 3 -4.75 3 -7 3 C-7 3.66 -7 4.32 -7 5 C-8.0209375 5.5878125 -8.0209375 5.5878125 -9.0625 6.1875 C-15.50253209 10.16113682 -19.52753614 14.87348651 -22 22 C-22.66 22 -23.32 22 -24 22 C-24.33 25.3 -24.66 28.6 -25 32 C-29 31 -29 31 -31 28 C-31.125 25.3125 -31.125 25.3125 -31 23 C-30.34 23 -29.68 23 -29 23 C-28.731875 21.9275 -28.46375 20.855 -28.1875 19.75 C-27.13882569 16.43839693 -26.37247839 14.47133166 -24 12 C-23.34 12 -22.68 12 -22 12 C-22 11.34 -22 10.68 -22 10 C-16.68576864 5.04005073 -7.55691617 -2.51897206 0 0 Z " fill="#282828" transform="translate(171,59)"/>
<path d="M0 0 C1.32 0.33 2.64 0.66 4 1 C4.33 3.31 4.66 5.62 5 8 C12.59 8 20.18 8 28 8 C23.66061709 10.16969145 21.51609592 10.21326104 16.75 10.125 C15.48671875 10.10695313 14.2234375 10.08890625 12.921875 10.0703125 C11.95765625 10.04710938 10.9934375 10.02390625 10 10 C10 11.98 10 13.96 10 16 C11.98 16 13.96 16 16 16 C16 16.33 16 16.66 16 17 C11.97922848 17.05843491 7.95856741 17.0937424 3.9375 17.125 C2.2369043 17.15013672 2.2369043 17.15013672 0.50195312 17.17578125 C-5.40039384 17.21019727 -10.44067027 17.04944811 -16 15 C-14 14 -14 14 -10.5 14.0625 C-5.51029673 14.14505024 -0.84324492 13.11156441 4 12 C3.71125 11.46890625 3.4225 10.9378125 3.125 10.390625 C2.75375 9.68421875 2.3825 8.9778125 2 8.25 C1.62875 7.55390625 1.2575 6.8578125 0.875 6.140625 C0 4 0 4 0 0 Z " fill="#9B9B9B" transform="translate(138,93)"/>
<path d="M0 0 C17.82 0 35.64 0 54 0 C54 10.89 54 21.78 54 33 C61.92 33 69.84 33 78 33 C78 33.33 78 33.66 78 34 C73.85418113 34.02886751 69.70838784 34.04675327 65.5625 34.0625 C64.37849609 34.07087891 63.19449219 34.07925781 61.97460938 34.08789062 C60.84990234 34.09111328 59.72519531 34.09433594 58.56640625 34.09765625 C57.00321655 34.10551147 57.00321655 34.10551147 55.40844727 34.11352539 C53 34 53 34 52 33 C51.76636119 31.15108054 51.58696365 29.29511969 51.4375 27.4375 C51.35371094 26.42558594 51.26992188 25.41367188 51.18359375 24.37109375 C51.12300781 23.58863281 51.06242188 22.80617187 51 22 C49.02 22.99 49.02 22.99 47 24 C48.33333333 21.33333333 49.66666667 18.66666667 51 16 C51.33 11.05 51.66 6.1 52 1 C35.17 1 18.34 1 1 1 C0.67 2.32 0.34 3.64 0 5 C0 3.35 0 1.7 0 0 Z " fill="#747474" transform="translate(545,150)"/>
<path d="M0 0 C3.83520308 3.28731693 6.32465344 7.25147171 8 12 C7.67 12.66 7.34 13.32 7 14 C6.7677354 16.71262116 6.58063765 19.40773126 6.4375 22.125 C6.39431641 22.87910156 6.35113281 23.63320312 6.30664062 24.41015625 C6.2005168 26.27321888 6.09974999 28.13658524 6 30 C5.67 30 5.34 30 5 30 C4.94392578 28.76636719 4.94392578 28.76636719 4.88671875 27.5078125 C4.31607548 17.81806592 2.72939717 9.55795678 -2 1 C-1.34 0.67 -0.68 0.34 0 0 Z " fill="#6F6F6F" transform="translate(297,122)"/>
<path d="M0 0 C10.23 0 20.46 0 31 0 C30.67 1.32 30.34 2.64 30 4 C30 3.34 30 2.68 30 2 C20.76 2 11.52 2 2 2 C2.33 3.65 2.66 5.3 3 7 C1.5 5.75 1.5 5.75 0 4 C0 2.68 0 1.36 0 0 Z " fill="#646464" transform="translate(291,108)"/>
<path d="M0 0 C1.89453125 0.2734375 1.89453125 0.2734375 4 1 C6.32196731 5.98792977 7.43274024 10.55430633 8 16 C5.69 16 3.38 16 1 16 C1 14.68 1 13.36 1 12 C1.99 12 2.98 12 4 12 C3.566875 11.20335938 3.566875 11.20335938 3.125 10.390625 C2.75375 9.68421875 2.3825 8.9778125 2 8.25 C1.62875 7.55390625 1.2575 6.8578125 0.875 6.140625 C0 4 0 4 0 0 Z " fill="#383838" transform="translate(138,93)"/>
<path d="M0 0 C0.33 0 0.66 0 1 0 C1 19.8 1 39.6 1 60 C0.67 60 0.34 60 0 60 C-0.33 42.18 -0.66 24.36 -1 6 C-1.66 6 -2.32 6 -3 6 C-1.125 1.125 -1.125 1.125 0 0 Z " fill="#545454" transform="translate(432,123)"/>
<path d="M0 0 C-0.33 1.32 -0.66 2.64 -1 4 C-1.66 3.34 -2.32 2.68 -3 2 C-5.0146892 1.68984763 -5.0146892 1.68984763 -7.33203125 1.734375 C-8.64554565 1.72857422 -8.64554565 1.72857422 -9.9855957 1.72265625 C-10.91847412 1.73167969 -11.85135254 1.74070313 -12.8125 1.75 C-13.75633545 1.75386719 -14.7001709 1.75773437 -15.67260742 1.76171875 C-22.94123587 1.85111003 -29.87102665 2.51865489 -37 4 C-36.67 3.34 -36.34 2.68 -36 2 C-33.64751398 1.33223704 -31.39786711 0.81419243 -29 0.375 C-28.29464111 0.24383789 -27.58928223 0.11267578 -26.86254883 -0.02246094 C-18.52475094 -1.43580257 -8.12137057 -2.70712352 0 0 Z " fill="#B9B9B9" transform="translate(195,49)"/>
<path d="M0 0 C0.33 0 0.66 0 1 0 C1.34680906 4.24841096 1.38748599 6.41271655 -1 10.03125 C-3.93648831 14.91475773 -3.43729102 19.90160956 -3.25 25.4375 C-3.23195312 26.45521484 -3.21390625 27.47292969 -3.1953125 28.52148438 C-3.14847997 31.01531655 -3.08291427 33.50715047 -3 36 C-3.66 36 -4.32 36 -5 36 C-5.01981934 35.41508789 -5.03963867 34.83017578 -5.06005859 34.22753906 C-5.15553481 31.56791975 -5.26512142 28.90906162 -5.375 26.25 C-5.4059375 25.32960937 -5.436875 24.40921875 -5.46875 23.4609375 C-5.50742188 22.57148438 -5.54609375 21.68203125 -5.5859375 20.765625 C-5.6173584 19.94868164 -5.6487793 19.13173828 -5.68115234 18.29003906 C-6.02343693 15.83167042 -6.7739277 14.14240001 -8 12 C-7.34 11.34 -6.68 10.68 -6 10 C-5.34 10 -4.68 10 -4 10 C-2.68 6.7 -1.36 3.4 0 0 Z " fill="#262626" transform="translate(218,122)"/>
<path d="M0 0 C-4.75 3 -4.75 3 -7 3 C-7 3.66 -7 4.32 -7 5 C-8.63064764 6.05771739 -10.30280873 7.05273046 -12 8 C-12.99 8.66 -13.98 9.32 -15 10 C-16.32 9.01 -17.64 8.02 -19 7 C-17.08702939 5.84800669 -15.16947471 4.70362312 -13.25 3.5625 C-12.18265625 2.92441406 -11.1153125 2.28632812 -10.015625 1.62890625 C-4.32871972 -1.44290657 -4.32871972 -1.44290657 0 0 Z " fill="#2D2D2D" transform="translate(171,59)"/>
<path d="M0 0 C1.11459595 -0.0009668 1.11459595 -0.0009668 2.25170898 -0.00195312 C8.25687135 0.05523271 13.96631219 0.77330338 19.8125 2.1875 C19.8125 2.8475 19.8125 3.5075 19.8125 4.1875 C20.8025 4.5175 21.7925 4.8475 22.8125 5.1875 C22.1525 5.5175 21.4925 5.8475 20.8125 6.1875 C19.10944192 5.4528475 17.40759345 4.71513387 15.71484375 3.95703125 C6.51103061 0.23392819 -5.56633504 1.88293526 -15.1875 3.1875 C-14.8575 2.5275 -14.5275 1.8675 -14.1875 1.1875 C-9.50212117 0.06100004 -4.79597308 -0.00431341 0 0 Z " fill="#9C9C9C" transform="translate(559.1875,106.8125)"/>
<path d="M0 0 C0.33 0 0.66 0 1 0 C1 10.56 1 21.12 1 32 C0.67 32 0.34 32 0 32 C-0.33 28.37 -0.66 24.74 -1 21 C-2.98 21.99 -2.98 21.99 -5 23 C-3 19 -3 19 -1.96875 17.34375 C-0.6069015 14.04895525 -0.53454068 10.76654241 -0.375 7.25 C-0.33632813 6.55261719 -0.29765625 5.85523438 -0.2578125 5.13671875 C-0.16401376 3.42489182 -0.08093826 1.71248318 0 0 Z " fill="#3C3C3C" transform="translate(597,151)"/>
<path d="M0 0 C2.64 0.66 5.28 1.32 8 2 C8 4.31 8 6.62 8 9 C4.22272911 7.18690997 0.62730178 5.0926741 -3 3 C-2.01 2.67 -1.02 2.34 0 2 C0 1.34 0 0.68 0 0 Z " fill="#2F2F2F" transform="translate(121,107)"/>
<path d="M0 0 C1.7290774 -0.02725341 3.45828176 -0.04650987 5.1875 -0.0625 C6.15042969 -0.07410156 7.11335938 -0.08570312 8.10546875 -0.09765625 C10.85576513 -0.00486622 13.32479591 0.37888315 16 1 C16 1.66 16 2.32 16 3 C17.32 3 18.64 3 20 3 C20 4.32 20 5.64 20 7 C17.09800355 6.38364677 14.82950524 5.44963931 12.25 4 C8.12783701 1.86143424 4.61092668 1.32935191 0 1 C0 0.67 0 0.34 0 0 Z " fill="#4A4A4A" transform="translate(114,84)"/>
<path d="M0 0 C-0.99 0.66 -1.98 1.32 -3 2 C-3 1.34 -3 0.68 -3 0 C-7.62 0 -12.24 0 -17 0 C-17 0.66 -17 1.32 -17 2 C-22.47619048 7 -22.47619048 7 -25 7 C-23.50521886 3.19510255 -21.30557786 1.33809165 -18 -1 C-11.91212295 -3.02929235 -5.90732295 -2.42351711 0 0 Z " fill="#5C5C5C" transform="translate(122,131)"/>
<path d="M0 0 C0.66 0.33 1.32 0.66 2 1 C0.06852571 2.9853759 -1.86966609 4.96329392 -3.8125 6.9375 C-4.35970703 7.50146484 -4.90691406 8.06542969 -5.47070312 8.64648438 C-9.66015625 12.88671875 -9.66015625 12.88671875 -13 14 C-10.38256198 8.10428565 -5.28256657 3.59214527 0 0 Z " fill="#C0C0C0" transform="translate(537,112)"/>
<path d="M0 0 C-3 1.5 -3 1.5 -6 3 C-6.99 2.67 -7.98 2.34 -9 2 C-9.20625 2.598125 -9.4125 3.19625 -9.625 3.8125 C-11.50926082 6.81018767 -13.81132084 7.61361776 -17 9 C-15.72204606 5.16613818 -13.24296184 3.19173373 -10.01953125 0.97265625 C-6.60466404 -0.67202834 -3.72978498 -0.32717412 0 0 Z " fill="#4B4B4B" transform="translate(642,127)"/>
<path d="M0 0 C3.32643967 2.98232523 5.29152862 5.86370087 7 10 C6.67 10.66 6.34 11.32 6 12 C2.31993178 8.61831569 0.0214155 5.57478244 -2 1 C-1.34 0.67 -0.68 0.34 0 0 Z " fill="#414141" transform="translate(297,122)"/>
<path d="M0 0 C0.33 0.99 0.66 1.98 1 3 C-2.50531324 4.16843775 -4.94992377 3.96048238 -8.625 3.6875 C-9.79289063 3.60886719 -10.96078125 3.53023438 -12.1640625 3.44921875 C-13.56785156 3.22685547 -13.56785156 3.22685547 -15 3 C-15.33 2.34 -15.66 1.68 -16 1 C-15.02160156 1.01740234 -15.02160156 1.01740234 -14.0234375 1.03515625 C-9.2238086 1.08470994 -4.72215315 0.99413751 0 0 Z " fill="#858585" transform="translate(138,106)"/>
<path d="M0 0 C7.59 0 15.18 0 23 0 C23 0.33 23 0.66 23 1 C22.38479492 1.01981934 21.76958984 1.03963867 21.13574219 1.06005859 C18.34007458 1.15549727 15.5451349 1.26509955 12.75 1.375 C11.29787109 1.42140625 11.29787109 1.42140625 9.81640625 1.46875 C8.88183594 1.50742188 7.94726562 1.54609375 6.984375 1.5859375 C6.12553711 1.6173584 5.26669922 1.6487793 4.38183594 1.68115234 C1.8717972 2.01716204 0.18067672 2.74191728 -2 4 C-1.34 2.68 -0.68 1.36 0 0 Z " fill="#EDEDED" transform="translate(410,110)"/>
<path d="M0 0 C0.66 0 1.32 0 2 0 C2.33 2.31 2.66 4.62 3 7 C0.69 7 -1.62 7 -4 7 C-4 6.01 -4 5.02 -4 4 C-2.68 4 -1.36 4 0 4 C0 2.68 0 1.36 0 0 Z " fill="#1B1B1B" transform="translate(143,102)"/>
<path d="M0 0 C0 4.24170573 -1.83750763 6.75139708 -4.6875 9.8125 C-5.120625 10.204375 -5.55375 10.59625 -6 11 C-7.32 10.34 -8.64 9.68 -10 9 C-8.63875 8.1646875 -8.63875 8.1646875 -7.25 7.3125 C-4.15546609 5.1106201 -2.20718532 3.05610275 0 0 Z " fill="#4D4D4D" transform="translate(520,172)"/>
<path d="M0 0 C0.8971875 0.309375 0.8971875 0.309375 1.8125 0.625 C0.0625 4.5 0.0625 4.5 -2.1875 5.625 C-2.5175 4.965 -2.8475 4.305 -3.1875 3.625 C-5.6625 5.11 -5.6625 5.11 -8.1875 6.625 C-7.8575 5.635 -7.5275 4.645 -7.1875 3.625 C-6.5275 3.625 -5.8675 3.625 -5.1875 3.625 C-5.1875 2.965 -5.1875 2.305 -5.1875 1.625 C-2.1875 -0.375 -2.1875 -0.375 0 0 Z " fill="#2B2B2B" transform="translate(154.1875,67.375)"/>
<path d="M0 0 C0.66 0.33 1.32 0.66 2 1 C0.78934835 4.63195496 -0.53691126 5.42896192 -3.5625 7.6875 C-4.38878906 8.31011719 -5.21507812 8.93273437 -6.06640625 9.57421875 C-6.70449219 10.04472656 -7.34257812 10.51523438 -8 11 C-8 10.01 -8 9.02 -8 8 C-7.34 8 -6.68 8 -6 8 C-5.7525 7.4225 -5.505 6.845 -5.25 6.25 C-3.83316683 3.6997003 -2.12372463 1.98214299 0 0 Z " fill="#CACACA" transform="translate(148,58)"/>
<path d="M0 0 C0.33 0 0.66 0 1 0 C1.33292585 4.24480464 1.43885872 6.35542625 -1 9.9375 C-1.66 10.618125 -2.32 11.29875 -3 12 C-4 10 -4 10 -3.22265625 7.6171875 C-2.83980469 6.71226562 -2.45695313 5.80734375 -2.0625 4.875 C-1.68222656 3.96492188 -1.30195313 3.05484375 -0.91015625 2.1171875 C-0.60980469 1.41851562 -0.30945313 0.71984375 0 0 Z " fill="#636363" transform="translate(218,122)"/>
<path d="M0 0 C0 3.39593478 -0.52165948 4.06619881 -2.5 6.6875 C-2.9640625 7.31011719 -3.428125 7.93273437 -3.90625 8.57421875 C-4.2671875 9.04472656 -4.628125 9.51523438 -5 10 C-6.32 9.34 -7.64 8.68 -9 8 C-6.03 5.36 -3.06 2.72 0 0 Z " fill="#3A3A3A" transform="translate(294,170)"/>
<path d="M0 0 C-4.75 3 -4.75 3 -7 3 C-7 3.66 -7 4.32 -7 5 C-9 4 -9 4 -10 2 C-3.375 -1.125 -3.375 -1.125 0 0 Z " fill="#5A5A5A" transform="translate(171,59)"/>
<path d="M0 0 C-1.1446875 0.680625 -1.1446875 0.680625 -2.3125 1.375 C-4.23632814 2.53824492 -6.12941224 3.7529415 -8 5 C-11.1875 5.125 -11.1875 5.125 -14 5 C-12.68 4.67 -11.36 4.34 -10 4 C-10 3.34 -10 2.68 -10 2 C-8.71211992 1.46987262 -7.41953322 0.9511671 -6.125 0.4375 C-5.40570313 0.14746094 -4.68640625 -0.14257812 -3.9453125 -0.44140625 C-2 -1 -2 -1 0 0 Z " fill="#6E6E6E" transform="translate(139,217)"/>
<path d="M0 0 C0 0.66 0 1.32 0 2 C-1.33333333 3.33333333 -2.66666667 4.66666667 -4 6 C-4.33 6.99 -4.66 7.98 -5 9 C-7 6 -7 6 -7 3 C-6.01 3 -5.02 3 -4 3 C-4 2.34 -4 1.68 -4 1 C-2 0 -2 0 0 0 Z " fill="#CBCBCB" transform="translate(77,198)"/>
<path d="M0 0 C1.7290774 -0.02725341 3.45828176 -0.04650987 5.1875 -0.0625 C6.15042969 -0.07410156 7.11335938 -0.08570312 8.10546875 -0.09765625 C10.85576513 -0.00486622 13.32479591 0.37888315 16 1 C12.35570204 3.38825352 9.9306564 2.94295451 5.75 2.125 C4.13351563 1.81949219 4.13351563 1.81949219 2.484375 1.5078125 C1.66453125 1.34023437 0.8446875 1.17265625 0 1 C0 0.67 0 0.34 0 0 Z " fill="#747474" transform="translate(114,84)"/>
<path d="M0 0 C0.99 0.33 1.98 0.66 3 1 C2.01 1.495 2.01 1.495 1 2 C0.67 2.66 0.34 3.32 0 4 C-0.66 4 -1.32 4 -2 4 C-2.33 4.66 -2.66 5.32 -3 6 C-4.65 6 -6.3 6 -8 6 C-5.38485683 3.87961365 -2.80362384 1.86908256 0 0 Z " fill="#262626" transform="translate(587,177)"/>
<path d="M0 0 C0 0.66 0 1.32 0 2 C-5.47619048 7 -5.47619048 7 -8 7 C-6.13932792 2.84926997 -4.83061881 0 0 0 Z " fill="#383838" transform="translate(105,131)"/>
<path d="M0 0 C2.475 0.495 2.475 0.495 5 1 C5.1875 4.375 5.1875 4.375 5 8 C4.01 8.66 3.02 9.32 2 10 C2.33 7.03 2.66 4.06 3 1 C2.01 0.67 1.02 0.34 0 0 Z " fill="#333333" transform="translate(517,110)"/>
<path d="M0 0 C0.66 0.33 1.32 0.66 2 1 C1.67 2.65 1.34 4.3 1 6 C-0.65 6 -2.3 6 -4 6 C-3.34 4.68 -2.68 3.36 -2 2 C-1.34 2 -0.68 2 0 2 C0 1.34 0 0.68 0 0 Z " fill="#080808" transform="translate(150,70)"/>
<path d="M0 0 C0 3.20395416 -0.74335022 5.09399739 -2 8 C-2.99 7.67 -3.98 7.34 -5 7 C-5.6875 4.9375 -5.6875 4.9375 -6 3 C-4.68 3.33 -3.36 3.66 -2 4 C-1.34 2.68 -0.68 1.36 0 0 Z " fill="#3F3F3F" transform="translate(342,140)"/>
<path d="M0 0 C0.66 0.33 1.32 0.66 2 1 C2 1.66 2 2.32 2 3 C-0.25 5.1875 -0.25 5.1875 -3 7 C-5.3125 6.75 -5.3125 6.75 -7 6 C-6.01 6 -5.02 6 -4 6 C-3.71125 5.38125 -3.4225 4.7625 -3.125 4.125 C-2 2 -2 2 0 0 Z " fill="#D7D7D7" transform="translate(630,111)"/>
<path d="M0 0 C5.66153846 1.47692308 5.66153846 1.47692308 7.375 4.125 C7.684375 5.053125 7.684375 5.053125 8 6 C7.01 6.495 7.01 6.495 6 7 C6 6.01 6 5.02 6 4 C5.01 4 4.02 4 3 4 C3 3.34 3 2.68 3 2 C2.01 1.67 1.02 1.34 0 1 C0 0.67 0 0.34 0 0 Z " fill="#A0A0A0" transform="translate(589,162)"/>
<path d="M0 0 C1.6415049 3.2830098 0.51888624 6.42545033 0 10 C-0.99 10.33 -1.98 10.66 -3 11 C-2.53199289 6.94393835 -2.12046792 3.53411321 0 0 Z " fill="#BCBCBC" transform="translate(138,69)"/>
<path d="M0 0 C1.8871875 0.061875 1.8871875 0.061875 3.8125 0.125 C0.84908286 1.77134286 -1.81926256 2.68181086 -5.1875 3.125 C-5.8475 2.795 -6.5075 2.465 -7.1875 2.125 C-4.09861478 0.06574319 -3.47814073 -0.1140374 0 0 Z " fill="#525252" transform="translate(638.1875,126.875)"/>
<path d="M0 0 C0.33 0.66 0.66 1.32 1 2 C-0.65 3.98 -2.3 5.96 -4 8 C-4.66 7.67 -5.32 7.34 -6 7 C-4.02 4.69 -2.04 2.38 0 0 Z " fill="#CDCDCD" transform="translate(225,119)"/>
<path d="M0 0 C0.33 0.66 0.66 1.32 1 2 C1.66 2.33 2.32 2.66 3 3 C1.35 4.65 -0.3 6.3 -2 8 C-1.125 2.25 -1.125 2.25 0 0 Z " fill="#292929" transform="translate(221,118)"/>
<path d="M0 0 C0.33 0 0.66 0 1 0 C1 1.98 1 3.96 1 6 C1.99 6.33 2.98 6.66 4 7 C3.01 8.485 3.01 8.485 2 10 C1.34 10 0.68 10 0 10 C0 6.7 0 3.4 0 0 Z " fill="#323232" transform="translate(185,109)"/>
<path d="M0 0 C2.31 0.33 4.62 0.66 7 1 C7 1.66 7 2.32 7 3 C7.99 3.33 8.98 3.66 10 4 C9.01 4.495 9.01 4.495 8 5 C6.0546875 4.22265625 6.0546875 4.22265625 3.875 3.0625 C3.15054688 2.68222656 2.42609375 2.30195312 1.6796875 1.91015625 C1.12539063 1.60980469 0.57109375 1.30945313 0 1 C0 0.67 0 0.34 0 0 Z " fill="#5D5D5D" transform="translate(572,108)"/>
</svg>
