<svg version="1.1" id="Layer_1" xmlns="http://www.w3.org/2000/svg" xmlns:xlink="http://www.w3.org/1999/xlink" x="0px" y="0px"
	 width="100%" viewBox="0 0 496 496" enable-background="new 0 0 496 496" xml:space="preserve">
<path fill="#000000" opacity="1.000000" stroke="none" 
	d="
M112.042610,274.657227 
	C123.599533,272.765472 129.943970,276.142181 134.685516,287.678864 
	C142.134232,305.802399 160.905731,313.127228 178.089218,307.564728 
	C185.109802,305.292084 187.751358,301.777893 187.684326,294.372345 
	C187.627594,288.108063 188.647369,281.709076 185.070648,275.237305 
	C190.660858,274.161011 195.750473,274.726532 200.775253,274.702972 
	C204.915665,274.683533 209.909576,273.093964 212.985199,275.410248 
	C216.373993,277.962341 212.391586,282.848206 213.334412,286.704041 
	C213.449677,287.175507 213.277771,287.711700 213.359894,288.197479 
	C215.862717,303.000275 207.477478,311.152710 195.340775,316.167725 
	C170.557648,326.408417 146.059860,327.046906 123.013641,311.324982 
	C111.812241,303.683441 105.502579,292.391846 101.929977,279.505249 
	C101.585350,278.262177 101.699043,276.892029 101.590569,275.456299 
	C104.949791,274.024323 108.304466,274.925446 112.042610,274.657227 
z"/>
<path fill="#000000" opacity="1.000000" stroke="none" 
	d="
M181.928864,217.050568 
	C159.173203,200.764450 132.374649,211.712082 127.353424,238.999725 
	C127.082664,240.471115 126.779175,241.937439 126.547974,243.415039 
	C125.302628,251.374115 125.307770,251.455612 117.018402,251.343613 
	C111.904945,251.274536 106.750221,251.862656 101.069702,250.786133 
	C102.704865,239.647171 106.699310,229.777100 113.532692,221.193558 
	C131.389603,198.763153 154.876404,193.092392 181.947266,198.884171 
	C185.725952,199.692642 189.043839,199.530777 192.589600,198.027115 
	C198.139908,195.673416 201.456314,197.217834 203.272797,203.107880 
	C206.218903,212.660645 207.512802,222.568771 208.825928,232.444031 
	C209.167648,235.013931 208.215515,237.429932 205.607803,238.686035 
	C202.973633,239.954926 200.550598,239.136276 198.805267,237.163162 
	C196.057388,234.056641 193.552536,230.721008 191.110443,227.361954 
	C188.455292,223.709885 185.620575,220.245117 181.928864,217.050568 
z"/>
<path fill="#000000" opacity="1.000000" stroke="none" 
	d="
M342.508728,244.624710 
	C343.149536,246.738739 343.982361,248.409851 343.533783,251.362061 
	C336.627716,251.362061 329.423584,252.269501 322.573212,251.101700 
	C315.988068,249.979126 309.559143,252.724075 302.733429,250.782120 
	C303.078308,245.591125 305.507324,241.171997 307.072113,236.543472 
	C310.678284,225.876877 308.422852,217.251846 299.685333,210.006653 
	C297.103394,207.865677 294.761139,205.631241 296.032135,202.036133 
	C297.278809,198.509766 300.610535,198.672546 303.629333,198.667374 
	C313.286102,198.650787 322.942993,198.657364 332.599731,198.681396 
	C335.478119,198.688568 338.596191,198.750549 339.898682,201.835266 
	C341.159760,204.821976 339.467072,207.341400 337.368896,209.408386 
	C333.968231,212.758530 333.717621,216.651566 335.070099,220.926102 
	C337.527344,228.692490 339.953308,236.468781 342.508728,244.624710 
z"/>
<path fill="#000000" opacity="1.000000" stroke="none" 
	d="
M237.203888,221.766663 
	C235.514877,216.435944 232.308136,212.715240 228.261688,209.585434 
	C225.762177,207.652161 223.757355,205.258316 225.125534,201.902740 
	C226.407104,198.759583 229.434250,198.650787 232.350784,198.655396 
	C242.011108,198.670654 251.671494,198.660263 261.331818,198.676880 
	C264.208771,198.681824 267.292511,198.724197 268.775055,201.660828 
	C270.407257,204.893890 268.400696,207.377060 266.231354,209.600876 
	C263.235016,212.672363 262.705444,216.225571 264.015350,220.206955 
	C266.769897,228.579193 269.509338,236.956558 272.203369,245.348389 
	C272.748810,247.047424 273.809357,248.707932 272.754608,251.270828 
	C265.260406,251.270828 257.487793,251.287201 249.715363,251.261078 
	C247.308990,251.252975 246.900284,249.267441 246.296326,247.556595 
	C243.304474,239.081573 240.331985,230.599731 237.203888,221.766663 
z"/>
<path fill="#000000" opacity="1.000000" stroke="none" 
	d="
M330.044983,287.807739 
	C328.855286,283.477142 326.699738,279.805847 326.394348,274.760925 
	C334.487000,274.760925 342.234985,274.730774 349.982483,274.780731 
	C352.093689,274.794312 352.599731,276.599274 353.129486,278.155945 
	C354.404602,281.902679 355.588104,285.680603 357.216187,290.703705 
	C358.723114,286.451752 360.142548,283.346405 360.900635,280.087250 
	C361.921967,275.696594 364.349976,274.008636 368.733063,274.637024 
	C371.001984,274.962311 373.392120,274.235840 375.774261,275.422668 
	C375.774261,276.168671 375.984161,277.031708 375.743103,277.741577 
	C371.465759,290.336853 367.409027,303.017609 362.707428,315.454132 
	C359.993378,322.633118 352.908875,321.796600 346.893585,322.280548 
	C341.872925,322.684448 340.660278,318.803802 339.394592,315.078461 
	C336.345306,306.103027 333.251617,297.142731 330.044983,287.807739 
z"/>
<path fill="#000000" opacity="1.000000" stroke="none" 
	d="
M283.834259,280.251038 
	C285.268677,283.611145 285.425537,287.065033 288.045044,290.416595 
	C289.357758,286.980652 290.911285,284.188965 291.456970,281.212463 
	C292.492004,275.566772 295.748535,273.865936 300.993774,274.651398 
	C302.588715,274.890228 304.328094,274.295959 305.975037,275.668915 
	C305.470245,280.387146 303.390839,284.765228 301.905792,289.294373 
	C299.160736,297.666595 296.354248,306.021271 293.397827,314.320709 
	C291.351288,320.065887 286.279449,322.375336 277.861908,322.377258 
	C272.285034,322.378540 271.161926,318.412689 269.767365,314.436737 
	C265.750519,302.984375 261.710114,291.540314 257.708862,280.082550 
	C257.180267,278.568878 256.128357,277.092804 257.269806,274.747711 
	C264.614105,274.747711 272.216980,274.658386 279.816040,274.790558 
	C282.961639,274.845276 282.850800,277.822845 283.834259,280.251038 
z"/>
<path fill="#000000" opacity="1.000000" stroke="none" 
	d="
M403.516418,210.499634 
	C399.137299,213.370743 396.616211,217.159012 395.080017,221.731033 
	C392.431213,229.614380 389.477112,237.402435 387.074432,245.358322 
	C385.717102,249.852783 383.556274,252.210968 378.626007,251.393173 
	C376.371124,251.019165 373.978027,251.761475 371.325134,250.535782 
	C372.079163,244.977966 374.608307,239.883759 376.187439,234.539688 
	C377.647949,229.597000 379.485382,224.766998 381.043060,219.851334 
	C382.383942,215.619965 382.180878,211.697525 378.617828,208.393753 
	C376.758698,206.669983 375.130737,204.527023 376.403625,201.788239 
	C377.611450,199.189468 380.107666,198.669479 382.735962,198.669601 
	C388.564880,198.669846 394.393982,198.641006 400.222687,198.677170 
	C403.554596,198.697830 407.428528,198.361832 408.830383,202.161896 
	C410.421997,206.476517 406.525848,208.198395 403.516418,210.499634 
z"/>
<path fill="#000000" opacity="1.000000" stroke="none" 
	d="
M190.972321,267.908630 
	C187.079590,267.672638 184.241608,266.244629 184.194489,262.433380 
	C184.157547,259.443176 186.282547,258.053345 189.364700,257.550903 
	C194.317215,256.743530 195.965286,260.111603 196.856659,263.541168 
	C198.058456,268.165161 193.509598,266.764587 190.972321,267.908630 
z"/>
<path fill="#000000" opacity="1.000000" stroke="none" 
	d="
M213.139313,258.163788 
	C217.043991,260.750214 211.630920,264.360077 215.632523,267.032837 
	C211.509308,267.372559 208.587997,260.472229 205.423386,266.978455 
	C202.849396,258.586853 204.082336,257.174194 213.139313,258.163788 
z"/>
<path fill="#000000" opacity="1.000000" stroke="none" 
	d="
M244.846283,262.172943 
	C244.450912,260.785126 243.416656,259.789856 244.459320,258.601532 
	C246.826370,258.909058 246.431488,262.009094 248.513565,262.635132 
	C250.346786,261.534271 249.911469,258.379456 252.681458,258.039856 
	C254.880753,258.684692 254.552353,261.464020 256.427948,262.541687 
	C258.383911,261.995697 257.972229,258.858734 260.727081,258.635101 
	C260.578613,262.078491 259.143707,264.748901 257.026611,267.070557 
	C254.044052,266.684357 254.488831,263.484131 252.494827,262.452332 
	C250.379501,263.158569 250.880753,265.988495 248.866409,266.986542 
	C246.102493,266.857574 246.197205,264.089142 244.846283,262.172943 
z"/>
<path fill="#000000" opacity="1.000000" stroke="none" 
	d="
M287.124634,259.863586 
	C285.760651,260.870850 284.450439,259.925446 282.893982,260.119751 
	C284.944824,261.902740 288.492889,261.343475 288.524261,264.765411 
	C288.540863,266.573212 287.150879,267.286530 285.526611,267.466736 
	C282.928223,267.754913 280.342834,267.951477 279.094299,264.770050 
	C280.890533,263.554657 282.466461,265.598236 284.121643,264.542175 
	C282.284149,263.344177 279.427185,263.252411 279.284637,260.352386 
	C279.222534,259.088928 280.114655,258.024445 281.360107,257.932678 
	C283.481079,257.776459 286.041199,256.527740 287.124634,259.863586 
z"/>
<path fill="#000000" opacity="1.000000" stroke="none" 
	d="
M303.036163,267.305176 
	C299.397858,267.329041 295.683228,268.169891 296.203735,262.660858 
	C296.688782,257.527252 298.342987,256.629639 304.759827,258.574066 
	C303.923859,260.870392 301.568207,259.500824 300.145996,260.451843 
	C301.279297,262.047302 303.511597,260.460327 304.738831,262.382843 
	C303.699066,264.805267 301.111969,263.435608 299.229004,264.048920 
	C300.689362,266.453491 303.682587,264.037292 304.919800,266.277313 
	C304.731140,267.115021 304.048828,267.170502 303.036163,267.305176 
z"/>
<path fill="#000000" opacity="1.000000" stroke="none" 
	d="
M235.022552,259.900391 
	C236.705292,263.160309 235.993652,265.628082 233.091614,266.867920 
	C230.095078,268.148102 226.838440,268.356873 224.331131,265.623932 
	C221.918121,262.993805 222.969345,259.024750 226.468765,258.074432 
	C229.334152,257.296295 232.420654,256.875519 235.022552,259.900391 
M226.440903,260.781952 
	C224.816910,262.699829 225.555008,264.199646 227.461487,265.168549 
	C229.213501,266.058960 231.018326,265.710052 232.541077,264.443329 
	C233.549255,263.604645 233.906418,262.394562 233.059479,261.375793 
	C231.390213,259.367889 229.321503,258.757385 226.440903,260.781952 
z"/>
<path fill="#000000" opacity="1.000000" stroke="none" 
	d="
M316.148071,258.610657 
	C318.092529,259.888245 318.912201,261.957642 320.938965,262.604004 
	C322.356079,261.688049 320.945374,259.507660 322.990906,258.690735 
	C324.721558,261.400787 324.463013,264.068726 323.270782,266.882385 
	C319.600067,266.998016 318.703339,263.488892 316.092407,262.243164 
	C314.752167,263.235168 316.042664,265.432465 314.033081,266.790497 
	C314.141052,263.553802 311.527405,260.372345 316.148071,258.610657 
z"/>
</svg>